HIERARCHY
ROOT SpineBase
{
  OFFSET 0.000000 0.000000 0.000000
  CHANNELS 6 Xposition Yposition Zposition Zrotation Xrotation Yrotation
  JOINT SpineMid
  {
    OFFSET 0.000000 28.991404 -0.000000
    CHANNELS 3 Zrotation Xrotation Yrotation
    JOINT SpineShoulder
    {
      OFFSET -0.194775 21.442250 -0.661182
      CHANNELS 3 Zrotation Xrotation Yrotation
      JOINT Neck
      {
        OFFSET -0.064999 7.088549 -0.525677
        CHANNELS 3 Zrotation Xrotation Yrotation
        JOINT Head
        {
          OFFSET -2.848861 12.397580 0.444176
          CHANNELS 3 Zrotation Xrotation Yrotation
          End Site
          {
            OFFSET 0 0 0
          }
        }
      }
      JOINT ShoulderLeft
      {
        OFFSET -14.447207 -5.611436 6.350931
        CHANNELS 3 Zrotation Xrotation Yrotation
        JOINT ElbowLeft
        {
          OFFSET -2.046579 -26.761397 8.078095
          CHANNELS 3 Zrotation Xrotation Yrotation
          JOINT WristLeft
          {
            OFFSET 0.185049 -25.346129 -5.251662
            CHANNELS 3 Zrotation Xrotation Yrotation
            JOINT HandLeft
            {
              OFFSET 0.499603 -3.311093 -0.040284
              CHANNELS 3 Zrotation Xrotation Yrotation
              JOINT HandTipLeft
              {
                OFFSET 2.253090 -5.038768 -1.297448
                CHANNELS 3 Zrotation Xrotation Yrotation
                End Site
                {
                  OFFSET 0 0 0
                }
              }
              JOINT ThumbLeft
              {
                OFFSET -2.597975 -0.506057 -1.226569
                CHANNELS 3 Zrotation Xrotation Yrotation
                End Site
                {
                  OFFSET 0 0 0
                }
              }
            }
          }
        }
      }
      JOINT ShoulderRight
      {
        OFFSET 9.952356 -4.668485 -11.216955
        CHANNELS 3 Zrotation Xrotation Yrotation
        JOINT ElbowRight
        {
          OFFSET 6.916880 -23.053880 -1.085459
          CHANNELS 3 Zrotation Xrotation Yrotation
          JOINT WristRight
          {
            OFFSET 1.381422 -22.064446 -4.533045
            CHANNELS 3 Zrotation Xrotation Yrotation
            JOINT HandRight
            {
              OFFSET -0.067951 -8.359521 1.288135
              CHANNELS 3 Zrotation Xrotation Yrotation
              JOINT HandTipRight
              {
                OFFSET 2.300575 -7.688236 1.310609
                CHANNELS 3 Zrotation Xrotation Yrotation
                End Site
                {
                  OFFSET 0 0 0
                }
              }
              JOINT ThumbRight
              {
                OFFSET -2.549612 0.996404 -0.435610
                CHANNELS 3 Zrotation Xrotation Yrotation
                End Site
                {
                  OFFSET 0 0 0
                }
              }
            }
          }
        }
      }
    }
  }
  JOINT HipLeft
  {
    OFFSET -5.078236 0.166837 -0.184729
    CHANNELS 3 Zrotation Xrotation Yrotation
    JOINT KneeLeft
    {
      OFFSET 6.482164 -29.114941 9.597018
      CHANNELS 3 Zrotation Xrotation Yrotation
      JOINT AnkleLeft
      {
        OFFSET 8.497923 -32.947595 9.059827
        CHANNELS 3 Zrotation Xrotation Yrotation
        JOINT FootLeft
        {
          OFFSET -4.572509 -3.675376 -9.683026
          CHANNELS 3 Zrotation Xrotation Yrotation
          End Site
          {
            OFFSET 0 0 0
          }
        }
      }
    }
  }
  JOINT HipRight
  {
    OFFSET 4.836271 0.985429 -6.429586
    CHANNELS 3 Zrotation Xrotation Yrotation
    JOINT KneeRight
    {
      OFFSET 9.499076 -32.396465 9.149016
      CHANNELS 3 Zrotation Xrotation Yrotation
      JOINT AnkleRight
      {
        OFFSET 5.529174 -29.962756 6.929955
        CHANNELS 3 Zrotation Xrotation Yrotation
        JOINT FootRight
        {
          OFFSET -2.628587 -6.183644 0.543658
          CHANNELS 3 Zrotation Xrotation Yrotation
          End Site
          {
            OFFSET 0 0 0
          }
        }
      }
    }
  }
}
MOTION
Frames: 11
Frame Time: 0.033333
8.181026 67.557435 347.699421 -0.000000 -0.000000 32.205624 0.000000 0.000000 -32.205624 -0.000000 0.000000 0.000000 -0.000000 0.000000 0.000000 0.000000 0.000000 0.000000 -0.000000 0.000000 0.000000 -0.000000 0.000000 0.000000 -0.000000 0.000000 0.000000 -0.000000 0.000000 0.000000 0.000000 0.000000 0.000000 0.000000 0.000000 0.000000 -0.000000 0.000000 0.000000 -0.000000 0.000000 0.000000 -0.000000 0.000000 0.000000 -0.000000 0.000000 0.000000 0.000000 0.000000 0.000000 0.000000 0.000000 0.000000 0.000000 0.000000 -32.205624 -0.000000 0.000000 0.000000 -0.000000 0.000000 0.000000 0.000000 0.000000 0.000000 0.000000 0.000000 -32.205624 -0.000000 0.000000 0.000000 -0.000000 0.000000 0.000000 0.000000 0.000000 0.000000
8.240127 67.713482 347.656891 0.354701 0.065145 33.305922 -0.332213 0.140324 -33.305717 -0.000000 0.000000 0.000000 -0.000000 0.000000 0.000000 0.000000 0.000000 0.000000 2.530700 8.780470 -0.105725 -4.616406 -17.640963 -0.415734 1.002296 10.090693 -0.137350 -7.498568 -7.832725 -1.721805 0.000000 0.000000 0.000000 0.000000 0.000000 0.000000 3.641341 2.887376 0.596774 -13.495962 1.882594 1.455762 0.389374 4.024208 -3.551856 -1.444569 -8.718518 -1.407661 0.000000 0.000000 0.000000 0.000000 0.000000 0.000000 -1.380737 1.170973 -33.706981 2.285266 -0.471765 0.600418 -0.838972 0.205183 -0.176699 0.000000 0.000000 0.000000 0.530231 0.666784 -32.921564 -0.310039 -1.856461 -0.533639 -4.678749 24.510827 -9.386966 0.000000 0.000000 0.000000
8.299356 67.841862 347.624838 0.672657 0.123679 34.103490 -0.626325 0.274742 -34.102714 -0.000000 0.000000 0.000000 -0.000000 0.000000 0.000000 0.000000 0.000000 0.000000 5.009134 17.101941 -0.586920 -9.932673 -34.457922 -2.385357 2.636677 19.542883 -0.514145 -14.326149 -13.706452 -4.021158 0.000000 0.000000 0.000000 0.000000 0.000000 0.000000 6.933875 6.418750 1.186941 -25.701919 2.489221 1.834964 -0.452941 9.048624 -6.268853 -2.139818 -16.560251 -4.404842 0.000000 0.000000 0.000000 0.000000 0.000000 0.000000 -2.548285 2.210834 -34.831290 4.097987 -0.809435 1.097055 -1.408314 0.345845 -0.295001 0.000000 0.000000 0.000000 1.048364 1.343100 -33.367380 -0.560515 -3.573617 -1.019810 -6.432245 40.522741 -15.098569 0.000000 0.000000 0.000000
8.358714 67.942577 347.603262 0.952642 0.175375 34.600767 -0.883741 0.396604 -34.599167 -0.000000 0.000000 0.000000 -0.000000 0.000000 0.000000 0.000000 0.000000 0.000000 7.361219 24.459365 -1.368312 -16.837652 -49.335476 -6.602368 4.687848 28.025681 -1.259086 -20.099272 -17.835823 -6.323651 0.000000 0.000000 0.000000 0.000000 0.000000 0.000000 9.877148 10.689922 1.770213 -37.119307 2.422454 0.946866 -1.924509 14.247586 -8.248551 -2.653335 -22.739086 -8.679931 0.000000 0.000000 0.000000 0.000000 0.000000 0.000000 -3.467958 3.025866 -35.568841 5.396540 -1.020204 1.465450 -1.990403 0.137879 0.621822 0.000000 0.000000 0.000000 1.530117 2.033879 -33.550538 -0.736203 -5.130491 -1.449330 -7.574828 48.991069 -17.918618 0.000000 0.000000 0.000000
8.418200 68.015624 347.592164 1.193620 0.220045 34.797518 -1.105757 0.500474 -34.794981 -0.000000 0.000000 0.000000 -0.000000 0.000000 0.000000 0.000000 0.000000 0.000000 9.506331 30.577519 -2.330871 -26.886629 -61.473969 -14.498903 7.072502 35.304731 -2.421473 -24.723310 -20.583884 -8.280021 0.000000 0.000000 0.000000 0.000000 0.000000 0.000000 12.452876 15.809570 2.356286 -48.336583 2.295138 -1.285628 -3.475490 18.975264 -9.710986 -3.470921 -26.630963 -13.920416 0.000000 0.000000 0.000000 0.000000 0.000000 0.000000 -4.111666 3.540545 -35.912061 6.135167 -1.108461 1.683994 -2.184319 0.112806 0.784676 0.000000 0.000000 0.000000 1.950318 2.742630 -33.475357 -0.821753 -6.510206 -1.813130 -9.287391 52.580134 -18.400943 0.000000 0.000000 0.000000
8.477815 68.061006 347.591542 1.394756 0.257536 34.690330 -1.293418 0.582051 -34.686895 0.884706 0.377199 0.066168 -0.885160 -0.376132 -0.071986 0.000000 0.000000 0.000000 10.474539 35.011316 -3.334509 -42.636576 -70.288425 -28.549713 9.760578 41.303785 -4.007641 -28.243344 -22.283395 -9.721055 0.000000 0.000000 0.000000 0.000000 0.000000 0.000000 13.715822 21.500683 2.999894 -59.955759 2.832163 -4.840457 -4.534437 22.811503 -10.976061 -4.910328 -27.691384 -19.693035 0.000000 0.000000 0.000000 0.000000 0.000000 0.000000 -4.461783 3.709448 -35.854921 6.281434 -1.077459 1.739033 -2.174868 0.059208 0.917035 0.000000 0.000000 0.000000 2.283173 3.470619 -33.142240 -0.802471 -7.700090 -2.102586 -11.878247 52.474566 -16.922600 0.000000 0.000000 0.000000
8.596240 68.156327 347.632634 1.643884 0.291552 34.123312 -1.524447 0.680813 -34.118437 1.085987 0.497264 0.080404 -0.393123 0.222405 0.052053 0.000000 0.000000 0.000000 12.508200 39.943049 -4.663745 -79.029884 -76.245972 -63.021164 12.561138 47.721279 -5.896662 -28.247179 -22.439541 -9.837093 0.000000 0.000000 0.000000 0.000000 0.000000 0.000000 15.202987 28.748294 3.764885 -75.181733 5.594687 -9.333192 -5.884289 28.649058 -11.203245 -8.141541 -24.477797 -26.802718 0.000000 0.000000 0.000000 0.000000 0.000000 0.000000 -4.495714 3.430702 -35.205418 5.495733 -0.766866 1.564971 -1.797557 -0.165679 1.068885 0.000000 0.000000 0.000000 2.922467 4.987236 -32.181689 -0.647807 -9.880996 -2.597998 -14.579863 43.585930 -12.196231 0.000000 0.000000 0.000000
8.704700 68.178006 347.647166 1.840747 0.346464 33.282946 -1.728976 0.720517 -33.277640 1.238887 0.597173 0.090923 -0.421754 0.421024 0.101610 0.000000 0.000000 0.000000 13.779769 42.907368 -5.637595 -110.628499 -75.729881 -93.397988 17.387564 52.804391 -9.350095 -33.101094 -24.016757 -11.478702 0.000000 0.000000 0.000000 0.000000 0.000000 0.000000 15.613279 37.092857 4.916337 -90.592352 11.933536 -13.559052 -0.822316 29.536903 -13.311459 -13.670581 -16.776171 -30.825245 0.000000 0.000000 0.000000 0.000000 0.000000 0.000000 -5.038971 3.551974 -34.467456 5.792660 -0.723013 1.667183 -1.747074 -0.120906 0.992904 0.000000 0.000000 0.000000 2.734145 5.740811 -31.277375 -0.377822 -10.400552 -2.660025 -18.260828 39.042642 -9.507268 0.000000 0.000000 0.000000
8.761824 68.083479 347.640249 1.892295 0.407394 32.332789 -1.816811 0.667859 -32.328927 1.238011 0.652452 0.090776 -0.451165 0.681302 0.172575 0.000000 0.000000 0.000000 13.903654 43.584083 -5.852193 -119.366330 -74.824281 -101.847466 22.129533 54.679945 -12.980564 -36.445034 -24.334254 -12.021799 0.000000 0.000000 0.000000 0.000000 0.000000 0.000000 15.043864 46.967191 6.807048 -103.338284 19.937275 -19.005922 2.836784 29.243598 -16.170142 -14.860247 -10.243750 -29.710278 0.000000 0.000000 0.000000 0.000000 0.000000 0.000000 -4.494477 2.719635 -33.297096 4.193458 -0.473473 1.222791 -1.095071 -0.168125 1.075192 0.000000 0.000000 0.000000 1.348709 5.065659 -30.791179 0.722932 -8.069403 -1.770952 -17.807968 18.090824 -4.601295 0.000000 0.000000 0.000000
8.721458 67.894491 347.649832 1.756634 0.391584 31.426484 -1.703133 0.581800 -31.423839 1.145954 0.629624 0.084489 -0.694635 1.042810 0.268761 0.000000 0.000000 0.000000 12.537308 41.333329 -5.052578 -105.668485 -76.262376 -88.899965 23.536954 53.708524 -13.926702 -36.262193 -22.940138 -10.663518 0.000000 0.000000 0.000000 0.000000 0.000000 0.000000 13.143043 56.166395 9.579946 -115.635819 29.806683 -21.976192 9.042919 25.657846 -22.620045 -16.433056 -5.561918 -31.871299 0.000000 0.000000 0.000000 0.000000 0.000000 0.000000 -3.324356 1.759099 -32.016084 1.998527 -0.138220 0.627775 -0.254562 -0.405515 1.181972 0.000000 0.000000 0.000000 1.743415 5.057270 -29.754819 0.236688 -8.309593 -1.994344 -18.248312 8.130242 -1.842988 0.000000 0.000000 0.000000
8.585787 67.652458 347.682866 1.481815 0.332460 31.089053 -1.440650 0.480474 -31.087311 0.990079 0.522019 0.073720 -1.192493 1.610037 0.415999 0.000000 0.000000 0.000000 12.395122 41.471831 -5.049486 -106.812438 -76.392099 -90.253265 23.304342 52.334322 -13.962914 -36.848759 -22.802543 -10.495126 0.000000 0.000000 0.000000 0.000000 0.000000 0.000000 10.804408 66.794054 13.566928 -124.761372 39.295761 -28.555994 7.822912 22.011401 -31.472431 -13.768679 -1.799432 -33.204316 0.000000 0.000000 0.000000 0.000000 0.000000 0.000000 -2.462020 1.394142 -31.458849 1.347998 -0.246160 0.391142 -0.253391 -0.401843 1.174197 0.000000 0.000000 0.000000 1.063009 3.885189 -29.827958 0.741528 -6.110568 -1.318054 -14.166217 -12.787595 3.733985 0.000000 0.000000 0.000000
